<svg width="196" height="62" viewBox="0 0 196 62" fill="none" xmlns="http://www.w3.org/2000/svg">
<path d="M4.704 48V14.4H9.792L22.032 34.32L19.584 34.272L31.968 14.4H36.768V48H31.584V34.224C31.584 31.344 31.648 28.752 31.776 26.448C31.936 24.144 32.192 21.856 32.544 19.584L33.216 21.36L22.224 38.352H19.056L8.4 21.552L8.928 19.584C9.28 21.728 9.52 23.936 9.648 26.208C9.808 28.448 9.888 31.12 9.888 34.224V48H4.704ZM60.2524 48.48C57.8844 48.48 55.6924 48.048 53.6764 47.184C51.6924 46.32 49.9484 45.12 48.4444 43.584C46.9724 42.016 45.8204 40.192 44.9884 38.112C44.1884 36 43.7884 33.696 43.7884 31.2C43.7884 28.704 44.1884 26.416 44.9884 24.336C45.8204 22.224 46.9724 20.4 48.4444 18.864C49.9484 17.296 51.6924 16.08 53.6764 15.216C55.6924 14.352 57.8844 13.92 60.2524 13.92C62.6204 13.92 64.7964 14.352 66.7804 15.216C68.7964 16.08 70.5404 17.296 72.0124 18.864C73.5164 20.432 74.6684 22.272 75.4684 24.384C76.3004 26.464 76.7164 28.736 76.7164 31.2C76.7164 33.664 76.3004 35.952 75.4684 38.064C74.6684 40.144 73.5164 41.968 72.0124 43.536C70.5404 45.104 68.7964 46.32 66.7804 47.184C64.7964 48.048 62.6204 48.48 60.2524 48.48ZM60.2524 43.44C61.8844 43.44 63.3724 43.136 64.7164 42.528C66.0924 41.92 67.2764 41.072 68.2684 39.984C69.2604 38.864 70.0284 37.568 70.5724 36.096C71.1484 34.592 71.4364 32.96 71.4364 31.2C71.4364 29.44 71.1484 27.824 70.5724 26.352C70.0284 24.848 69.2604 23.552 68.2684 22.464C67.2764 21.344 66.0924 20.48 64.7164 19.872C63.3724 19.264 61.8844 18.96 60.2524 18.96C58.6204 18.96 57.1164 19.264 55.7404 19.872C54.3964 20.48 53.2124 21.328 52.1884 22.416C51.1964 23.504 50.4284 24.8 49.8844 26.304C49.3404 27.776 49.0684 29.408 49.0684 31.2C49.0684 32.96 49.3404 34.592 49.8844 36.096C50.4284 37.6 51.1964 38.896 52.1884 39.984C53.2124 41.072 54.3964 41.92 55.7404 42.528C57.1164 43.136 58.6204 43.44 60.2524 43.44ZM97.7993 48.48C95.4313 48.48 93.2393 48.048 91.2233 47.184C89.2393 46.32 87.4953 45.12 85.9913 43.584C84.5193 42.016 83.3673 40.192 82.5353 38.112C81.7353 36 81.3353 33.696 81.3353 31.2C81.3353 28.704 81.7353 26.416 82.5353 24.336C83.3673 22.224 84.5193 20.4 85.9913 18.864C87.4953 17.296 89.2393 16.08 91.2233 15.216C93.2393 14.352 95.4313 13.92 97.7993 13.92C100.167 13.92 102.343 14.352 104.327 15.216C106.343 16.08 108.087 17.296 109.559 18.864C111.063 20.432 112.215 22.272 113.015 24.384C113.847 26.464 114.263 28.736 114.263 31.2C114.263 33.664 113.847 35.952 113.015 38.064C112.215 40.144 111.063 41.968 109.559 43.536C108.087 45.104 106.343 46.32 104.327 47.184C102.343 48.048 100.167 48.48 97.7993 48.48ZM97.7993 43.44C99.4313 43.44 100.919 43.136 102.263 42.528C103.639 41.92 104.823 41.072 105.815 39.984C106.807 38.864 107.575 37.568 108.119 36.096C108.695 34.592 108.983 32.96 108.983 31.2C108.983 29.44 108.695 27.824 108.119 26.352C107.575 24.848 106.807 23.552 105.815 22.464C104.823 21.344 103.639 20.48 102.263 19.872C100.919 19.264 99.4313 18.96 97.7993 18.96C96.1673 18.96 94.6633 19.264 93.2873 19.872C91.9433 20.48 90.7593 21.328 89.7353 22.416C88.7433 23.504 87.9753 24.8 87.4313 26.304C86.8873 27.776 86.6153 29.408 86.6153 31.2C86.6153 32.96 86.8873 34.592 87.4313 36.096C87.9753 37.6 88.7433 38.896 89.7353 39.984C90.7593 41.072 91.9433 41.92 93.2873 42.528C94.6633 43.136 96.1673 43.44 97.7993 43.44ZM129.717 48L116.277 14.4H122.181L130.197 34.8C130.581 35.792 130.917 36.688 131.205 37.488C131.525 38.288 131.797 39.024 132.021 39.696C132.245 40.336 132.453 40.944 132.645 41.52C132.837 42.096 133.029 42.672 133.221 43.248L131.973 43.296C132.197 42.528 132.437 41.728 132.693 40.896C132.949 40.064 133.237 39.152 133.557 38.16C133.909 37.168 134.325 36.048 134.805 34.8L142.245 14.4H148.293L134.757 48H129.717ZM163.166 48V31.248L163.502 33.6L149.918 14.4H156.158L166.526 29.28L165.326 29.136L174.686 14.4H180.638L167.63 34.128L168.35 30.864V48H163.166Z" fill="white"/>
<path d="M186.597 48.528C185.541 48.528 184.725 48.224 184.149 47.616C183.573 46.976 183.285 46.08 183.285 44.928C183.285 43.872 183.589 43.008 184.197 42.336C184.805 41.664 185.605 41.328 186.597 41.328C187.653 41.328 188.469 41.648 189.045 42.288C189.621 42.896 189.909 43.776 189.909 44.928C189.909 45.984 189.605 46.848 188.997 47.52C188.389 48.192 187.589 48.528 186.597 48.528Z" fill="#E9636A"/>
<ellipse cx="60.5" cy="31" rx="12.5" ry="14" fill="white"/>
<ellipse cx="98.5" cy="31" rx="12.5" ry="14" fill="white"/>
</svg>
